<?xml version="1.0" encoding="UTF-8" standalone="no"?>
<svg
   width="113.38499"
   height="113.38499"
   fill="currentColor"
   class="bi bi-sun-fill"
   viewBox="0 0 113.38499 113.38499"
   version="1.1"
   id="svg1193"
   sodipodi:docname="contrast.svg"
   inkscape:version="1.1.2 (0a00cf5339, 2022-02-04)"
   xmlns:inkscape="http://www.inkscape.org/namespaces/inkscape"
   xmlns:sodipodi="http://sodipodi.sourceforge.net/DTD/sodipodi-0.dtd"
   xmlns="http://www.w3.org/2000/svg"
   xmlns:svg="http://www.w3.org/2000/svg">
  <defs
     id="defs1197" />
  <sodipodi:namedview
     id="namedview1195"
     pagecolor="#ffffff"
     bordercolor="#666666"
     borderopacity="1.0"
     inkscape:pageshadow="2"
     inkscape:pageopacity="0.0"
     inkscape:pagecheckerboard="0"
     showgrid="false"
     fit-margin-top="0"
     fit-margin-left="0"
     fit-margin-right="0"
     fit-margin-bottom="0"
     inkscape:zoom="4.2"
     inkscape:cx="8.0952381"
     inkscape:cy="19.642857"
     inkscape:window-width="2100"
     inkscape:window-height="1123"
     inkscape:window-x="3910"
     inkscape:window-y="44"
     inkscape:window-maximized="0"
     inkscape:current-layer="svg1193" />
  <path
     d="m 56.692072,85.039371 a 28.346457,28.346457 0 1 0 0,-56.692914 28.346457,28.346457 0 0 0 0,56.692914 M 56.692072,0 a 3.5433071,3.5433071 0 0 1 3.543307,3.5433071 V 17.716536 a 3.5433071,3.5433071 0 0 1 -7.086614,0 V 3.5433071 A 3.5433071,3.5433071 0 0 1 56.692072,0 m 0,92.125985 a 3.5433071,3.5433071 0 0 1 3.543307,3.543307 v 14.173228 a 3.5433071,3.5433071 0 0 1 -7.086614,0 V 95.669292 a 3.5433071,3.5433071 0 0 1 3.543307,-3.543307 M 113.38499,56.692914 a 3.5433071,3.5433071 0 0 1 -3.54331,3.543307 H 95.66845 a 3.5433071,3.5433071 0 0 1 0,-7.086614 h 14.17323 a 3.5433071,3.5433071 0 0 1 3.54331,3.543307 m -92.125989,0 a 3.5433071,3.5433071 0 0 1 -3.543307,3.543307 H 3.5424653 a 3.5433071,3.5433071 0 0 1 0,-7.086614 H 17.715694 a 3.5433071,3.5433071 0 0 1 3.543307,3.543307 M 96.781049,16.603937 a 3.5433071,3.5433071 0 0 1 0,5.010236 L 86.760576,31.641733 A 3.5452784,3.5452784 0 1 1 81.75034,26.62441 L 91.770813,16.603937 a 3.5433071,3.5433071 0 0 1 5.010236,0 M 31.633804,81.751182 a 3.5433071,3.5433071 0 0 1 0,5.010236 L 21.613331,96.781891 A 3.5433071,3.5433071 0 0 1 16.603095,91.771655 L 26.623568,81.751182 a 3.5433071,3.5433071 0 0 1 5.010236,0 z m 65.147245,15.030709 a 3.5433071,3.5433071 0 0 1 -5.010236,0 L 81.75034,86.761418 a 3.5433071,3.5433071 0 0 1 5.010236,-5.010236 l 10.020473,10.020473 a 3.5433071,3.5433071 0 0 1 0,5.010236 M 31.633804,31.641733 a 3.5433071,3.5433071 0 0 1 -5.010236,0 L 16.603095,21.614173 a 3.5433071,3.5433071 0 1 1 5.010236,-5.010236 L 31.633804,26.62441 a 3.5433071,3.5433071 0 0 1 0,5.017323 z"
     id="path1191"
     style="stroke-width:0.999999" />
</svg>
