<?xml version="1.0" encoding="UTF-8" standalone="no"?>
<!-- Created with Inkscape (http://www.inkscape.org/) -->

<svg
   width="10.482928mm"
   height="5.5077324mm"
   viewBox="0 0 10.482928 5.5077324"
   version="1.1"
   id="svg5"
   inkscape:version="1.1.2 (0a00cf5339, 2022-02-04)"
   sodipodi:docname="cuts.svg"
   xmlns:inkscape="http://www.inkscape.org/namespaces/inkscape"
   xmlns:sodipodi="http://sodipodi.sourceforge.net/DTD/sodipodi-0.dtd"
   xmlns="http://www.w3.org/2000/svg"
   xmlns:svg="http://www.w3.org/2000/svg">
  <sodipodi:namedview
     id="namedview7"
     pagecolor="#ffffff"
     bordercolor="#666666"
     borderopacity="1.0"
     inkscape:pageshadow="2"
     inkscape:pageopacity="0.0"
     inkscape:pagecheckerboard="0"
     inkscape:document-units="mm"
     showgrid="false"
     fit-margin-top="0"
     fit-margin-left="0"
     fit-margin-right="0"
     fit-margin-bottom="0"
     inkscape:zoom="5.39"
     inkscape:cx="-20.686456"
     inkscape:cy="-14.19295"
     inkscape:window-width="2125"
     inkscape:window-height="1123"
     inkscape:window-x="3935"
     inkscape:window-y="541"
     inkscape:window-maximized="0"
     inkscape:current-layer="layer1" />
  <defs
     id="defs2">
    <marker
       style="overflow:visible"
       id="Arrow2Sstartl"
       refX="0"
       refY="0"
       orient="auto"
       inkscape:stockid="Arrow2Sstartl">
      <path
         transform="matrix(0.3,0,0,0.3,-0.69,0)"
         d="M 8.7185878,4.0337352 -2.2072895,0.01601326 8.7185884,-4.0017078 c -1.7454984,2.3720609 -1.7354408,5.6174519 -6e-7,8.035443 z"
         style="fill:#fd3301;fill-rule:evenodd;stroke:#fd3301;stroke-width:0.625;stroke-linejoin:round"
         id="path6348" />
    </marker>
    <marker
       style="overflow:visible"
       id="Arrow2Sstartl-2"
       refX="0"
       refY="0"
       orient="auto"
       inkscape:stockid="Arrow2Sstartl">
      <path
         transform="matrix(0.3,0,0,0.3,-0.69,0)"
         d="M 8.7185878,4.0337352 -2.2072895,0.01601326 8.7185884,-4.0017078 c -1.7454984,2.3720609 -1.7354408,5.6174519 -6e-7,8.035443 z"
         style="fill:#fd3301;fill-rule:evenodd;stroke:#fd3301;stroke-width:0.625;stroke-linejoin:round"
         id="path6348-4" />
    </marker>
    <inkscape:path-effect
       effect="bspline"
       id="path-effect7625"
       is_visible="true"
       weight="33.333333"
       steps="2"
       helper_size="0"
       apply_no_weight="true"
       apply_with_weight="true"
       only_selected="false"
       lpeversion="0" />
    <inkscape:path-effect
       effect="bspline"
       id="path-effect7989"
       is_visible="true"
       weight="33.333333"
       steps="2"
       helper_size="0"
       apply_no_weight="true"
       apply_with_weight="true"
       only_selected="false"
       lpeversion="0" />
    <marker
       inkscape:isstock="true"
       style="overflow:visible"
       id="marker10365"
       refX="0"
       refY="0"
       orient="auto"
       inkscape:stockid="Arrow2Lend">
      <path
         transform="matrix(-1.1,0,0,-1.1,-1.1,0)"
         d="M 8.7185878,4.0337352 -2.2072895,0.01601326 8.7185884,-4.0017078 c -1.7454984,2.3720609 -1.7354408,5.6174519 -6e-7,8.035443 z"
         style="fill:#000000;fill-opacity:1;fill-rule:evenodd;stroke:#000000;stroke-width:0.625;stroke-linejoin:round;stroke-opacity:1"
         id="path10363" />
    </marker>
    <inkscape:path-effect
       only_selected="false"
       apply_with_weight="true"
       apply_no_weight="true"
       helper_size="0"
       steps="2"
       weight="33.333333"
       is_visible="true"
       id="path-effect10361"
       effect="bspline"
       lpeversion="0" />
  </defs>
  <g
     inkscape:label="Layer 1"
     inkscape:groupmode="layer"
     id="layer1"
     transform="translate(-86.708082,-116.10306)">
    <g
       id="g1551">
      <path
         sodipodi:nodetypes="ccccccccc"
         inkscape:original-d="m 86.762727,121.4711 c 0.660757,-0.25849 1.321502,-0.51696 1.982235,-0.77542 0.403315,-0.7754 0.806636,-1.55084 1.209936,-2.32624 0.291765,-0.62033 0.583527,-1.24067 0.875272,-1.86099 0.420486,-0.13294 0.84096,-0.26587 1.261422,-0.39879 0.463379,0.15507 0.926772,0.31016 1.390139,0.46525 0.197378,0.60555 0.394741,1.21111 0.592096,1.81668 0.308936,0.72372 0.617852,1.44743 0.92676,2.17116 0.712248,0.27324 1.424475,0.54648 2.136694,0.81973"
         inkscape:path-effect="#path-effect7625"
         inkscape:connector-curvature="0"
         id="path7623"
         d="m 86.762727,121.4711 c 0.660761,-0.25848 1.321505,-0.51695 1.853524,-1.03389 0.532018,-0.51693 0.935343,-1.29237 1.282874,-1.99024 0.347532,-0.69786 0.639294,-1.3182 0.995413,-1.69483 0.35612,-0.37662 0.776594,-0.50955 1.218511,-0.49848 0.441918,0.0111 0.905312,0.16617 1.235679,0.54649 0.330367,0.38031 0.527732,0.98587 0.780877,1.65052 0.253144,0.66465 0.56206,1.38836 1.072643,1.88684 0.510584,0.49849 1.22281,0.77173 1.935033,1.04497"
         style="fill:none;fill-opacity:1;fill-rule:evenodd;stroke:#000000;stroke-width:0.3;stroke-linecap:butt;stroke-linejoin:round;stroke-miterlimit:4;stroke-dasharray:none;stroke-dashoffset:0;stroke-opacity:1" />
      <g
         style="fill:currentColor;stroke-width:1.72926"
         id="g1264"
         transform="matrix(0.07830037,0,0,-0.2989792,86.930024,121.05346)">
        <path
           d="m 7.27,2.047 a 1,1 0 0 1 1.46,0 l 6.345,6.77 c 0.6,0.638 0.146,1.683 -0.73,1.683 H 11.5 v 3 a 1,1 0 0 1 -1,1 h -5 a 1,1 0 0 1 -1,-1 v -3 H 1.654 C 0.78,10.5 0.326,9.455 0.924,8.816 Z"
           id="path1262"
           style="stroke-width:1.72926" />
      </g>
      <g
         style="fill:currentColor;stroke-width:1.72926"
         id="g1544"
         transform="matrix(0.07830037,0,0,-0.2989792,95.727457,121.05346)">
        <path
           d="m 7.27,2.047 a 1,1 0 0 1 1.46,0 l 6.345,6.77 c 0.6,0.638 0.146,1.683 -0.73,1.683 H 11.5 v 3 a 1,1 0 0 1 -1,1 h -5 a 1,1 0 0 1 -1,-1 v -3 H 1.654 C 0.78,10.5 0.326,9.455 0.924,8.816 Z"
           id="path1542"
           style="stroke-width:1.72926" />
      </g>
    </g>
  </g>
</svg>
