<?xml version="1.0" encoding="utf-8"?>

<!DOCTYPE svg PUBLIC "-//W3C//DTD SVG 1.0//EN" "http://www.w3.org/TR/2001/REC-SVG-20010904/DTD/svg10.dtd">
<!-- Uploaded to: SVG Repo, www.svgrepo.com, Generator: SVG Repo Mixer Tools -->
<svg version="1.0" id="Layer_1" xmlns="http://www.w3.org/2000/svg" xmlns:xlink="http://www.w3.org/1999/xlink" 
	 width="800px" height="800px" viewBox="0 0 64 64" enable-background="new 0 0 64 64" xml:space="preserve">
<g>
	<g>
		<polygon fill="#F9EBB2" points="46,3.414 46,14 56.586,14 		"/>
		<path fill="#F9EBB2" d="M45,16c-0.553,0-1-0.447-1-1V2H8C6.896,2,6,2.896,6,4v56c0,1.104,0.896,2,2,2h48c1.104,0,2-0.896,2-2V16
			H45z"/>
	</g>
	<path fill="#394240" d="M14,26c0,0.553,0.447,1,1,1h34c0.553,0,1-0.447,1-1s-0.447-1-1-1H15C14.447,25,14,25.447,14,26z"/>
	<path fill="#394240" d="M49,37H15c-0.553,0-1,0.447-1,1s0.447,1,1,1h34c0.553,0,1-0.447,1-1S49.553,37,49,37z"/>
	<path fill="#394240" d="M49,43H15c-0.553,0-1,0.447-1,1s0.447,1,1,1h34c0.553,0,1-0.447,1-1S49.553,43,49,43z"/>
	<path fill="#394240" d="M49,49H15c-0.553,0-1,0.447-1,1s0.447,1,1,1h34c0.553,0,1-0.447,1-1S49.553,49,49,49z"/>
	<path fill="#394240" d="M49,31H15c-0.553,0-1,0.447-1,1s0.447,1,1,1h34c0.553,0,1-0.447,1-1S49.553,31,49,31z"/>
	<path fill="#394240" d="M15,20h16c0.553,0,1-0.447,1-1s-0.447-1-1-1H15c-0.553,0-1,0.447-1,1S14.447,20,15,20z"/>
	<path fill="#394240" d="M59.706,14.292L45.708,0.294C45.527,0.112,45.277,0,45,0H8C5.789,0,4,1.789,4,4v56c0,2.211,1.789,4,4,4h48
		c2.211,0,4-1.789,4-4V15C60,14.723,59.888,14.473,59.706,14.292z M46,3.414L56.586,14H46V3.414z M58,60c0,1.104-0.896,2-2,2H8
		c-1.104,0-2-0.896-2-2V4c0-1.104,0.896-2,2-2h36v13c0,0.553,0.447,1,1,1h13V60z"/>
	<polygon opacity="0.15" fill="#231F20" points="46,3.414 56.586,14 46,14 	"/>
</g>
</svg>