<?xml version="1.0" encoding="UTF-8" standalone="no"?>
<!-- Created with Inkscape (http://www.inkscape.org/) -->

<svg
   width="26.250002mm"
   height="30.000002mm"
   viewBox="0 0 26.250001 30.000002"
   version="1.1"
   id="svg1324"
   inkscape:version="1.1.2 (0a00cf5339, 2022-02-04)"
   sodipodi:docname="fits.svg"
   xmlns:inkscape="http://www.inkscape.org/namespaces/inkscape"
   xmlns:sodipodi="http://sodipodi.sourceforge.net/DTD/sodipodi-0.dtd"
   xmlns="http://www.w3.org/2000/svg"
   xmlns:svg="http://www.w3.org/2000/svg">
  <sodipodi:namedview
     id="namedview1326"
     pagecolor="#ffffff"
     bordercolor="#666666"
     borderopacity="1.0"
     inkscape:pageshadow="2"
     inkscape:pageopacity="0.0"
     inkscape:pagecheckerboard="0"
     inkscape:document-units="mm"
     showgrid="false"
     inkscape:zoom="0.48"
     inkscape:cx="401.04167"
     inkscape:cy="396.875"
     inkscape:window-width="2125"
     inkscape:window-height="1123"
     inkscape:window-x="4037"
     inkscape:window-y="193"
     inkscape:window-maximized="0"
     inkscape:current-layer="layer1"
     fit-margin-top="0"
     fit-margin-left="0"
     fit-margin-right="0"
     fit-margin-bottom="0" />
  <defs
     id="defs1321" />
  <g
     inkscape:label="Layer 1"
     inkscape:groupmode="layer"
     id="layer1"
     transform="translate(383.60157,-43.718497)">
    <g
       id="g1923"
       transform="matrix(0.14173229,0,0,0.14173229,-385.35188,37.671253)"
       style="stroke-width:7.05556">
      <polygon
         fill="#f9ebb2"
         points="46,3.414 46,14 56.586,14 "
         id="polygon1453"
         transform="matrix(3.3072917,0,0,3.3072917,-0.87972615,42.666666)"
         style="stroke-width:49.7809" />
      <path
         fill="#f9ebb2"
         d="m 147.9484,95.583333 c -1.82893,0 -3.30729,-1.478359 -3.30729,-3.307292 V 49.281249 H 25.578607 c -3.65125,0 -6.614583,2.963334 -6.614583,6.614584 V 241.10417 c 0,3.65125 2.963333,6.61458 6.614583,6.61458 H 184.32861 c 3.65125,0 6.61458,-2.96333 6.61458,-6.61458 V 95.583333 Z"
         id="path1455"
         style="fill:#808080;stroke-width:23.3348" />
      <path
         fill="#394240"
         d="M 196.58543,89.934479 150.28996,43.63901 c -0.59862,-0.601927 -1.42544,-0.972344 -2.34156,-0.972344 H 25.578607 c -7.312421,0 -13.229166,5.916745 -13.229166,13.229167 V 241.10417 c 0,7.31242 5.916745,13.22916 13.229166,13.22916 H 184.32861 c 7.31242,0 13.22917,-5.91674 13.22917,-13.22916 V 92.276041 c 0,-0.916119 -0.37042,-1.742942 -0.97235,-2.341562 z M 151.25569,53.95776 186.26668,88.96875 h -35.01099 z m 39.6875,187.14641 c 0,3.65125 -2.96333,6.61458 -6.61458,6.61458 H 25.578607 c -3.65125,0 -6.614583,-2.96333 -6.614583,-6.61458 V 55.895833 c 0,-3.65125 2.963333,-6.614584 6.614583,-6.614584 H 144.64111 v 42.994792 c 0,1.828933 1.47836,3.307292 3.30729,3.307292 h 42.99479 z"
         id="path1471"
         style="stroke-width:23.3348" />
      <polygon
         opacity="0.15"
         fill="#231f20"
         points="56.586,14 46,14 46,3.414 "
         id="polygon1473"
         transform="matrix(3.3072917,0,0,3.3072917,-0.87972615,42.666666)"
         style="stroke-width:49.7809" />
      <path
         sodipodi:type="star"
         style="fill:#ffd700;stroke:#000000;stroke-width:2.66667;stroke-linejoin:round;stop-color:#000000"
         id="path1067"
         inkscape:flatsided="false"
         sodipodi:sides="7"
         sodipodi:cx="325.80121"
         sodipodi:cy="477.29825"
         sodipodi:r1="190.6347"
         sodipodi:r2="120.2905"
         sodipodi:arg1="-0.32953655"
         sodipodi:arg2="0.1192624"
         inkscape:rounded="0"
         inkscape:randomized="0"
         transform="matrix(0.26458333,0,0,0.26458333,19.655717,34.143253)"
         inkscape:transform-center-x="0.23961444"
         inkscape:transform-center-y="-4.5864915"
         d="m 506.17832,415.60799 -60.94108,76.00241 41.25864,88.24911 -97.41721,-0.25893 -43.27159,87.27972 -60.5362,-76.32528 -95.21743,20.58693 21.9298,-94.91715 -75.4626,-61.60825 87.88222,-42.03445 1.1171,-97.41116 87.65753,42.50103 76.85561,-59.86147 21.42494,95.03238 z" />
    </g>
  </g>
</svg>
