<?xml version="1.0" encoding="UTF-8" standalone="no"?>
<!-- Uploaded to: SVG Repo, www.svgrepo.com, Generator: SVG Repo Mixer Tools -->

<svg
   width="123.69363"
   height="113.38583"
   viewBox="0 0 3.7108088 3.401575"
   version="1.1"
   id="svg2351"
   sodipodi:docname="folder.svg"
   inkscape:version="1.1.2 (0a00cf5339, 2022-02-04)"
   xmlns:inkscape="http://www.inkscape.org/namespaces/inkscape"
   xmlns:sodipodi="http://sodipodi.sourceforge.net/DTD/sodipodi-0.dtd"
   xmlns="http://www.w3.org/2000/svg"
   xmlns:svg="http://www.w3.org/2000/svg">
  <defs
     id="defs2355" />
  <sodipodi:namedview
     id="namedview2353"
     pagecolor="#ffffff"
     bordercolor="#666666"
     borderopacity="1.0"
     inkscape:pageshadow="2"
     inkscape:pageopacity="0.0"
     inkscape:pagecheckerboard="0"
     showgrid="false"
     fit-margin-top="0"
     fit-margin-left="0"
     fit-margin-right="0"
     fit-margin-bottom="0"
     inkscape:zoom="1.09125"
     inkscape:cx="6.4146621"
     inkscape:cy="367.01031"
     inkscape:window-width="2100"
     inkscape:window-height="1123"
     inkscape:window-x="3910"
     inkscape:window-y="44"
     inkscape:window-maximized="0"
     inkscape:current-layer="svg2351" />
  <g
     transform="matrix(0.15461704,0,0,0.15461704,0,-159.16278)"
     id="g2349"
     style="stroke-width:6.4676">
    <path
       d="m 2,1033.4 c -1.1046,0 -2,0.9 -2,2 v 14 c 0,1.1 0.89543,2 2,2 h 20 c 1.105,0 2,-0.9 2,-2 v -14 c 0,-1.1 -0.895,-2 -2,-2 z"
       fill="#2980b9"
       id="path2341"
       style="stroke-width:45.6325" />
    <path
       d="m 3,1029.4 c -1.1046,0 -2,0.9 -2,2 v 14 c 0,1.1 0.8954,2 2,2 h 11 5 2 c 1.105,0 2,-0.9 2,-2 v -9 -3 c 0,-1.1 -0.895,-2 -2,-2 h -2 -5 -1 l -3,-2 z"
       fill="#2980b9"
       id="path2343"
       style="stroke-width:45.6325" />
    <path
       d="m 23,1042.4 v -8 c 0,-1.1 -0.895,-2 -2,-2 H 10 5 3 c -1.1046,0 -2,0.9 -2,2 v 8 z"
       fill="#bdc3c7"
       id="path2345"
       style="stroke-width:45.6325" />
    <path
       d="m 2,1033.4 c -1.1046,0 -2,0.9 -2,2 v 6 1 6 c 0,1.1 0.89543,2 2,2 h 20 c 1.105,0 2,-0.9 2,-2 v -6 -1 -6 c 0,-1.1 -0.895,-2 -2,-2 z"
       fill="#3498db"
       id="path2347"
       style="stroke-width:45.6325" />
  </g>
</svg>
