<?xml version="1.0" encoding="UTF-8" standalone="no"?>
<!-- Created with Inkscape (http://www.inkscape.org/) -->

<svg
   width="20.785254mm"
   height="31.737247mm"
   viewBox="0 0 20.785253 31.737248"
   version="1.1"
   id="svg27507"
   inkscape:version="1.1.2 (0a00cf5339, 2022-02-04)"
   sodipodi:docname="hand.svg"
   xmlns:inkscape="http://www.inkscape.org/namespaces/inkscape"
   xmlns:sodipodi="http://sodipodi.sourceforge.net/DTD/sodipodi-0.dtd"
   xmlns="http://www.w3.org/2000/svg"
   xmlns:svg="http://www.w3.org/2000/svg">
  <sodipodi:namedview
     id="namedview27509"
     pagecolor="#ffffff"
     bordercolor="#666666"
     borderopacity="1.0"
     inkscape:pageshadow="2"
     inkscape:pageopacity="0.0"
     inkscape:pagecheckerboard="0"
     inkscape:document-units="mm"
     showgrid="true"
     fit-margin-top="0"
     fit-margin-left="0"
     fit-margin-right="0"
     fit-margin-bottom="0"
     inkscape:zoom="0.81"
     inkscape:cx="32.716049"
     inkscape:cy="68.518519"
     inkscape:window-width="2125"
     inkscape:window-height="1123"
     inkscape:window-x="4307"
     inkscape:window-y="532"
     inkscape:window-maximized="0"
     inkscape:current-layer="layer1">
    <inkscape:grid
       type="xygrid"
       id="grid27640"
       originx="-22.31107"
       originy="-195.08384" />
  </sodipodi:namedview>
  <defs
     id="defs27504" />
  <g
     inkscape:label="Layer 1"
     inkscape:groupmode="layer"
     id="layer1"
     transform="translate(-22.311076,-195.08383)">
    <g
       id="g2774"
       transform="matrix(0.06198681,0,0,0.06198681,16.835121,195.08383)"
       style="fill:#fffafa;stroke-width:6.66935">
	<path
   class="st0"
   d="m 423.658,63.034 c 0,-12.55 -10.198,-22.733 -22.724,-22.733 -12.542,0 -22.708,10.183 -22.708,22.733 V 175.26 c -4.59,-1.123 -9.488,-2.182 -14.644,-3.241 V 30.895 c 0,-12.55 -10.215,-22.7 -22.724,-22.7 -12.542,0 -22.725,10.15 -22.725,22.7 v 131.677 c -4.897,-1.075 -9.778,-2.093 -14.627,-3.038 V 22.701 C 303.505,10.207 293.323,0 280.813,0 268.222,0 258.089,10.207 258.089,22.701 v 131.297 c -5.156,0 -9.956,0.444 -14.628,1.188 V 63.487 c 0,-12.518 -10.215,-22.676 -22.725,-22.676 -12.558,0 -22.708,10.158 -22.708,22.676 0,0 -0.162,157.86 -0.098,161.351 -2.618,21.958 -42.168,-22.466 -76.837,-31.889 -36.722,-10.021 -46.016,24.874 -10.005,53.402 60.837,48.286 113.382,152.608 113.382,192.659 V 512 H 381.7 l -2.352,-62.646 c 0,-37.238 44.31,-78.615 44.31,-177.918 z"
   id="path2772"
   style="fill:#fffafa;stroke-width:6.66935" />

</g>
  </g>
  <style
     type="text/css"
     id="style2770">
	.st0{fill:#000000;}
</style>
</svg>
