<?xml version="1.0" encoding="UTF-8" standalone="no"?>
<svg
   width="99.212601"
   height="113.38583"
   fill="currentColor"
   class="bi bi-bag-dash"
   viewBox="0 0 99.212601 113.38583"
   version="1.1"
   id="svg2961"
   sodipodi:docname="inbox_minus.svg"
   inkscape:version="1.1.2 (0a00cf5339, 2022-02-04)"
   xmlns:inkscape="http://www.inkscape.org/namespaces/inkscape"
   xmlns:sodipodi="http://sodipodi.sourceforge.net/DTD/sodipodi-0.dtd"
   xmlns="http://www.w3.org/2000/svg"
   xmlns:svg="http://www.w3.org/2000/svg">
  <defs
     id="defs2965" />
  <sodipodi:namedview
     id="namedview2963"
     pagecolor="#ffffff"
     bordercolor="#666666"
     borderopacity="1.0"
     inkscape:pageshadow="2"
     inkscape:pageopacity="0.0"
     inkscape:pagecheckerboard="0"
     showgrid="false"
     fit-margin-top="0"
     fit-margin-left="0"
     fit-margin-right="0"
     fit-margin-bottom="0"
     inkscape:zoom="3.42"
     inkscape:cx="7.0175439"
     inkscape:cy="8.0409357"
     inkscape:window-width="2100"
     inkscape:window-height="1123"
     inkscape:window-x="3910"
     inkscape:window-y="44"
     inkscape:window-maximized="0"
     inkscape:current-layer="svg2961" />
  <g
     id="g3033"
     transform="matrix(7.0866142,0,0,7.0866142,-7.0866142,0)"
     style="stroke-width:0.141111">
    <path
       fill-rule="evenodd"
       d="M 5.5,10 A 0.5,0.5 0 0 1 6,9.5 h 4 a 0.5,0.5 0 0 1 0,1 H 6 A 0.5,0.5 0 0 1 5.5,10"
       id="path2957"
       style="stroke-width:0.0199123" />
    <path
       d="m 8,1 a 2.5,2.5 0 0 1 2.5,2.5 V 4 h -5 V 3.5 A 2.5,2.5 0 0 1 8,1 m 3.5,3 V 3.5 a 3.5,3.5 0 1 0 -7,0 V 4 H 1 v 10 a 2,2 0 0 0 2,2 h 10 a 2,2 0 0 0 2,-2 V 4 Z M 2,5 h 12 v 9 a 1,1 0 0 1 -1,1 H 3 A 1,1 0 0 1 2,14 Z"
       id="path2959"
       style="stroke-width:0.141111" />
  </g>
</svg>
