<?xml version="1.0" encoding="UTF-8" standalone="no"?>
<!-- Created with Inkscape (http://www.inkscape.org/) -->

<svg
   xmlns:dc="http://purl.org/dc/elements/1.1/"
   xmlns:cc="http://creativecommons.org/ns#"
   xmlns:rdf="http://www.w3.org/1999/02/22-rdf-syntax-ns#"
   xmlns:svg="http://www.w3.org/2000/svg"
   xmlns="http://www.w3.org/2000/svg"
   xmlns:sodipodi="http://sodipodi.sourceforge.net/DTD/sodipodi-0.dtd"
   xmlns:inkscape="http://www.inkscape.org/namespaces/inkscape"
   id="svg2"
   version="1.1"
   inkscape:version="0.92.3 (2405546, 2018-03-11)"
   width="276"
   height="276"
   sodipodi:docname="Microscope_icon.svg"
   inkscape:export-filename="C:\Users\u0094799\Documents\Icons\microscope_icon.png"
   inkscape:export-xdpi="10.55"
   inkscape:export-ydpi="10.55">
  <metadata
     id="metadata8">
    <rdf:RDF>
      <cc:Work
         rdf:about="">
        <dc:format>image/svg+xml</dc:format>
        <dc:type
           rdf:resource="http://purl.org/dc/dcmitype/StillImage" />
        <dc:title></dc:title>
      </cc:Work>
    </rdf:RDF>
  </metadata>
  <defs
     id="defs6" />
  <sodipodi:namedview
     pagecolor="#ffffff"
     bordercolor="#666666"
     borderopacity="1"
     objecttolerance="10"
     gridtolerance="10"
     guidetolerance="10"
     inkscape:pageopacity="0"
     inkscape:pageshadow="2"
     inkscape:window-width="3773"
     inkscape:window-height="2086"
     id="namedview4"
     showgrid="false"
     inkscape:zoom="1.4418349"
     inkscape:cx="-11.97727"
     inkscape:cy="106.74421"
     inkscape:window-x="67"
     inkscape:window-y="44"
     inkscape:window-maximized="1"
     inkscape:current-layer="svg2" />
  <path
     inkscape:connector-curvature="0"
     id="path2991"
     d="m 150.17599,114.71085 c -11.27633,-6.02789 -15.7708,-19.766042 -9.99892,-30.563456 6.0279,-11.276328 19.76605,-15.7708 30.56346,-9.998915 11.27633,6.02789 15.7708,19.766049 9.99892,30.563461 -6.02789,11.27633 -19.76605,15.7708 -30.56346,9.99891 z"
     style="fill:#000000;fill-opacity:1"
     sodipodi:nodetypes="sssss"
     inkscape:export-filename="./microscope_48.png"
     inkscape:export-xdpi="18"
     inkscape:export-ydpi="18" />
  <path
     inkscape:connector-curvature="0"
     id="path2989"
     d="m 47.2626,265.23835 c -0.418908,-0.4189 -0.76165,-5.19405 -0.76165,-10.61143 0,-11.6058 2.71845,-18.41652 9.023131,-22.60632 3.841181,-2.55267 4.294618,-2.57979 43.128419,-2.57979 l 39.24642,0 0,-13.70969 0,-13.7097 10.90543,0 c 10.05532,0 11.12405,-0.2186 13.7097,-2.80426 2.58237,-2.58236 2.80426,-3.65997 2.80426,-13.61891 l 0,-10.81467 3.36389,-0.73883 c 1.85014,-0.40636 5.17133,-2.73947 7.38043,-5.18468 8.06368,-8.92553 9.81031,-25.6423 3.9223,-37.5398 l -2.95881,-5.97868 5.96754,-5.96755 c 9.88703,-9.88704 12.53684,-24.1288 6.68865,-35.949051 -1.30368,-2.634954 -2.11648,-4.790826 -1.80624,-4.790826 0.31024,0 3.52386,1.79798 7.14139,3.995511 14.49065,8.802596 26.67539,25.758906 31.63592,44.024586 2.71681,10.00384 2.7314,30.94738 0.0286,41.09292 -4.44502,16.68543 -15.85594,33.36363 -29.02666,42.42533 l -4.91759,3.38343 0,7.94243 0,7.94244 10.96647,0 c 12.71312,0 17.22589,1.5998 21.94417,7.77935 2.82798,3.70382 3.10864,5.03301 3.46402,16.4051 L 229.49905,266 l -90.7374,0 c -49.90557,0 -91.080143,-0.34274 -91.49905,-0.76165 z m 17.517944,-81.49652 0,-9.1398 45.698986,0 45.69898,0 0,9.1398 0,9.13979 -45.69898,0 -45.698986,0 0,-9.13979 z m 32.227161,-32.31815 -4.80777,-4.89876 0,-13.72021 0,-13.7202 -4.569899,-4.4624 -4.569898,-4.46239 0,-27.526896 0,-27.526902 4.569898,-4.462387 c 4.559267,-4.452004 4.569899,-4.483111 4.569899,-13.370321 0,-8.67028 -0.07402,-8.907934 -2.774581,-8.907934 -4.451351,0 -6.365216,-2.875707 -6.365216,-9.564145 0,-3.28543 0.616936,-6.590446 1.370969,-7.344479 1.942208,-1.942208 50.154633,-1.942208 52.096843,0 0.75403,0.754033 1.37097,4.334739 1.37097,7.957125 0,6.991078 -1.4848,8.951499 -6.77974,8.951499 -2.18331,0 -2.36006,0.667153 -2.36006,8.907934 0,8.88721 0.0103,8.918317 4.5699,13.370321 l 4.5699,4.462387 0,9.5554 c 0,8.412048 -0.33908,9.99995 -2.83377,13.270667 -6.44301,8.447223 -7.99665,20.220281 -4.04188,30.628381 2.25722,5.94052 2.25722,5.96614 0,8.36883 -1.99705,2.12576 -2.26415,4.02437 -2.26415,16.09388 l 0,13.68381 -4.89876,4.80777 c -4.87695,4.78637 -4.93694,4.80778 -13.47182,4.80778 l -8.57306,0 -4.807775,-4.89876 z"
     style="fill:#000000"
     inkscape:export-filename="./microscope_48.png"
     inkscape:export-xdpi="18"
     inkscape:export-ydpi="18" />
</svg>
