<?xml version="1.0" encoding="UTF-8" standalone="no"?>
<!-- Created with Inkscape (http://www.inkscape.org/) -->

<svg
   id="svg2"
   version="1.1"
   inkscape:version="1.1.2 (0a00cf5339, 2022-02-04)"
   width="81.052338"
   height="113.38583"
   sodipodi:docname="microscope.svg"
   inkscape:export-filename="C:\Users\u0094799\Documents\Icons\microscope_icon.png"
   inkscape:export-xdpi="10.55"
   inkscape:export-ydpi="10.55"
   xmlns:inkscape="http://www.inkscape.org/namespaces/inkscape"
   xmlns:sodipodi="http://sodipodi.sourceforge.net/DTD/sodipodi-0.dtd"
   xmlns="http://www.w3.org/2000/svg"
   xmlns:svg="http://www.w3.org/2000/svg"
   xmlns:rdf="http://www.w3.org/1999/02/22-rdf-syntax-ns#"
   xmlns:cc="http://creativecommons.org/ns#"
   xmlns:dc="http://purl.org/dc/elements/1.1/">
  <metadata
     id="metadata8">
    <rdf:RDF>
      <cc:Work
         rdf:about="">
        <dc:format>image/svg+xml</dc:format>
        <dc:type
           rdf:resource="http://purl.org/dc/dcmitype/StillImage" />
      </cc:Work>
    </rdf:RDF>
  </metadata>
  <defs
     id="defs6" />
  <sodipodi:namedview
     pagecolor="#ffffff"
     bordercolor="#666666"
     borderopacity="1"
     objecttolerance="10"
     gridtolerance="10"
     guidetolerance="10"
     inkscape:pageopacity="0"
     inkscape:pageshadow="2"
     inkscape:window-width="2100"
     inkscape:window-height="1123"
     id="namedview4"
     showgrid="false"
     inkscape:zoom="1.4418349"
     inkscape:cx="-58.259097"
     inkscape:cy="96.751715"
     inkscape:window-x="3910"
     inkscape:window-y="44"
     inkscape:window-maximized="0"
     inkscape:current-layer="svg2"
     inkscape:pagecheckerboard="0"
     fit-margin-top="0"
     fit-margin-left="0"
     fit-margin-right="0"
     fit-margin-bottom="0" />
  <path
     inkscape:connector-curvature="0"
     id="path2991"
     d="m 45.919064,46.377838 c -4.994438,-2.669834 -6.985099,-8.754645 -4.428656,-13.536964 2.669838,-4.994437 8.754648,-6.985099 13.536962,-4.428654 4.99444,2.669833 6.9851,8.754648 4.42866,13.536966 -2.66983,4.994438 -8.754649,6.985099 -13.536966,4.428652 z"
     style="fill:#000000;fill-opacity:1;stroke-width:1"
     sodipodi:nodetypes="sssss"
     inkscape:export-filename="./microscope_48.png"
     inkscape:export-xdpi="18"
     inkscape:export-ydpi="18" />
  <path
     inkscape:connector-curvature="0"
     id="path2989"
     d="M 0.337345,113.04848 C 0.151805,112.86295 0,110.74797 0,108.34854 0,103.20817 1.204038,100.19162 3.996466,98.3359 5.697776,97.20528 5.89861,97.19327 23.09862,97.19327 h 17.382765 v -6.0722 -6.072212 h 4.830161 c 4.453636,0 4.926991,-0.09682 6.07221,-1.242044 1.143766,-1.143762 1.242044,-1.62105 1.242044,-6.031998 v -4.789962 l 1.48991,-0.327238 c 0.81945,-0.179982 2.29045,-1.213348 3.26889,-2.296364 3.57152,-3.953237 4.34512,-11.357318 1.73724,-16.62688 l -1.31049,-2.648037 2.6431,-2.643108 c 4.3791,-4.379103 5.55273,-10.686969 2.96249,-15.922316 -0.57742,-1.167057 -0.93742,-2.121921 -0.80001,-2.121921 0.13741,0 1.56077,0.796349 3.16302,1.769665 6.4181,3.898788 11.81489,11.408965 14.01197,19.499079 1.20332,4.430834 1.20978,13.707009 0.0127,18.200604 -1.96876,7.390201 -7.02281,14.777199 -12.8563,18.790747 l -2.17806,1.498565 v 3.51781 3.51781 h 4.85719 c 5.63082,0 7.62958,0.70858 9.71937,3.44558 1.25255,1.64047 1.37686,2.22919 1.53426,7.26604 l 0.17126,5.48094 H 40.8635 c -22.103845,0 -40.340615,-0.15181 -40.526155,-0.33735 z M 8.096277,76.952583 v -4.04814 H 28.33697 48.57766 v 4.04814 4.048135 H 28.33697 8.096277 Z M 22.370118,62.638442 20.240693,60.468715 V 54.39185 48.31499 l -2.02407,-1.976457 -2.024069,-1.976452 V 32.17005 19.978017 l 2.024069,-1.976451 c 2.019361,-1.971852 2.02407,-1.98563 2.02407,-5.921894 0,-3.8401829 -0.03278,-3.9454439 -1.228899,-3.9454439 -1.971563,0 -2.81924,-1.273689 -2.81924,-4.236087 0,-1.455161 0.27325,-2.91899698 0.607221,-3.25296898 0.86023,-0.8602295 22.214158,-0.8602295 23.074389,0 0.33397,0.333972 0.607221,1.91991398 0.607221,3.52431798 0,3.096442 -0.657638,3.964738 -3.002837,3.964738 -0.967018,0 -1.045303,0.295491 -1.045303,3.9454439 0,3.936264 0.0046,3.950042 2.02407,5.921894 l 2.02407,1.976451 v 4.232214 c 0,3.725809 -0.150183,4.429112 -1.255115,5.877757 -2.853695,3.741388 -3.541823,8.955833 -1.790202,13.56572 0.999753,2.631135 0.999753,2.642483 0,3.706666 -0.884521,0.941528 -1.002823,1.782448 -1.002823,7.128195 v 6.060743 l -2.169726,2.129426 c -2.160067,2.119947 -2.186637,2.12943 -5.96685,2.12943 h -3.797123 z"
     style="fill:#000000;stroke-width:1"
     inkscape:export-filename="./microscope_48.png"
     inkscape:export-xdpi="18"
     inkscape:export-ydpi="18" />
</svg>
