<?xml version="1.0" encoding="UTF-8" standalone="no"?>
<!-- Uploaded to: SVG Repo, www.svgrepo.com, Generator: SVG Repo Mixer Tools -->

<svg
   height="113.38583"
   width="84.888283"
   version="1.1"
   id="_x32_"
   viewBox="0 0 54.328501 72.566934"
   xml:space="preserve"
   sodipodi:docname="palette.svg"
   inkscape:version="1.1.2 (0a00cf5339, 2022-02-04)"
   xmlns:inkscape="http://www.inkscape.org/namespaces/inkscape"
   xmlns:sodipodi="http://sodipodi.sourceforge.net/DTD/sodipodi-0.dtd"
   xmlns="http://www.w3.org/2000/svg"
   xmlns:svg="http://www.w3.org/2000/svg"><defs
   id="defs19" /><sodipodi:namedview
   id="namedview17"
   pagecolor="#ffffff"
   bordercolor="#666666"
   borderopacity="1.0"
   inkscape:pageshadow="2"
   inkscape:pageopacity="0.0"
   inkscape:pagecheckerboard="0"
   showgrid="false"
   fit-margin-top="0"
   fit-margin-left="0"
   fit-margin-right="0"
   fit-margin-bottom="0"
   inkscape:zoom="0.95"
   inkscape:cx="298.94737"
   inkscape:cy="399.47368"
   inkscape:window-width="2100"
   inkscape:window-height="1123"
   inkscape:window-x="1141"
   inkscape:window-y="456"
   inkscape:window-maximized="0"
   inkscape:current-layer="_x32_" />
<style
   type="text/css"
   id="style2">
	.st0{fill:#000000;}
</style>
<g
   id="g14"
   transform="matrix(0.14173216,0,0,0.14173216,-9.119093,0)"
   style="stroke-width:7.05556">
	<path
   class="st0"
   d="m 108.303,151.078 c 15.132,21.096 36.72,35.172 56.347,36.762 l 0.823,0.075 36.85,-26.438 0.196,-0.801 C 207.293,141.573 200.873,116.605 185.746,95.521 171.389,75.517 154.67,61.793 138.493,48.511 127.456,39.455 116.035,30.077 105.376,18.731 96.553,9.334 93.583,4.692 93.574,4.68 L 90.713,0 l -2.4,2.826 c -11.14,13.155 -15.592,36.868 -12.237,65.047 3.516,29.591 14.972,59.151 32.227,83.205 z m 8.214,-35.022 c 12.018,13.598 17.63,4.692 10.4,-9.17 -9.079,-17.388 0.098,-18.012 5.682,-12.601 5.566,5.392 12.541,17.476 18.548,14.014 3.611,-2.081 -0.268,-9.568 -5.38,-20.913 -2.932,-6.496 -0.4,-16.24 14.701,-3.236 5.515,5.544 10.747,11.523 15.618,18.309 10.564,14.707 15.565,32.428 13.121,46.329 l -31.55,22.642 c -13.963,-2.132 -29.12,-12.551 -39.697,-27.284 -4.049,-5.651 -7.761,-11.768 -11.078,-18.201 -0.356,-0.921 -0.763,-1.904 -1.236,-2.946 -5.267,-11.597 -1.146,-20.527 10.871,-6.943 z"
   id="path4"
   style="stroke-width:7.05556" />
	<path
   class="st0"
   d="m 179.632,215.898 c 0.511,8.306 4.156,17.363 10.078,25.05 l 26.851,34.813 52.614,-37.746 -24.376,-36.579 c -5.38,-8.085 -12.793,-14.43 -20.5,-17.576 -7.707,-3.147 -15.038,-2.794 -20.267,0.952 l -16.994,12.197 c -5.233,3.747 -7.908,10.589 -7.406,18.889 z"
   id="path6"
   style="stroke-width:7.05556" />
	<path
   class="st0"
   d="m 277.84,251.026 -51.722,37.103 160.228,207.73 c 11.109,14.411 27.51,20.182 37.323,13.156 l 0.116,-0.101 c 9.807,-7.032 9.586,-24.42 -0.501,-39.562 z"
   id="path8"
   style="stroke-width:7.05556" />
	<path
   class="st0"
   d="m 212.647,302.413 -38.279,-49.634 c -8.328,-10.81 -13.323,-23.48 -14.073,-35.689 -0.214,-3.557 -0.038,-6.988 0.457,-10.28 -20.506,-2.321 -41.472,-14.152 -58.391,-32.555 -30.877,41.308 -44.976,90.558 -34.693,137.297 19.973,90.772 124.179,137.619 232.762,104.647 L 212.66,302.407 Z m -99.456,-72.621 c 4.276,-12.866 18.163,-19.829 31.022,-15.565 12.866,4.276 19.835,18.163 15.565,31.029 -4.276,12.866 -18.17,19.828 -31.023,15.564 -12.865,-4.288 -19.834,-18.176 -15.564,-31.028 z m 46.934,112.827 c -8.829,9.321 -23.549,9.737 -32.871,0.908 -9.328,-8.83 -9.731,-23.536 -0.902,-32.858 8.823,-9.334 23.536,-9.738 32.864,-0.908 9.323,8.816 9.733,23.536 0.909,32.858 z"
   id="path10"
   style="stroke-width:7.05556" />
	<path
   class="st0"
   d="M 438.63,142.04 C 399.919,84.056 314.406,61.239 228.118,87.449 c -6.83,2.075 -13.509,4.415 -20.033,7.007 13.181,22.635 18.173,47.433 13.642,68.611 3.295,0.586 6.606,1.514 9.898,2.857 11.349,4.636 21.755,13.434 29.304,24.779 l 34.747,52.144 h -0.003 l 87.029,130.644 c 12.503,-9.763 23.909,-20.478 33.861,-32.032 11.617,-13.484 15.641,-55.196 -38.181,-53.039 -57.391,2.296 -65.338,-67.999 -6.458,-73.196 73.195,-6.459 88.262,-40.906 66.706,-73.184 z m -156.709,20.862 c -14.884,1.741 -28.342,-8.93 -30.07,-23.802 -1.734,-14.884 8.924,-28.342 23.808,-30.07 14.878,-1.728 28.342,8.931 30.07,23.802 1.734,14.884 -8.931,28.343 -23.808,30.07 z m 111.553,13.812 c -5.298,5.285 -12.608,8.325 -20.093,8.325 -7.486,0 -14.802,-3.04 -20.094,-8.325 -5.291,-5.298 -8.324,-12.613 -8.324,-20.093 0,-7.493 3.033,-14.808 8.324,-20.106 5.292,-5.285 12.608,-8.312 20.094,-8.312 7.486,0 14.796,3.027 20.093,8.312 5.291,5.298 8.324,12.613 8.324,20.106 0,7.48 -3.033,14.795 -8.324,20.093 z"
   id="path12"
   style="stroke-width:7.05556" />
</g>
</svg>
