<?xml version="1.0" encoding="UTF-8" standalone="no"?>
<svg
   width="113.38583"
   height="113.38583"
   fill="currentColor"
   class="bi bi-brightness-low-fill"
   viewBox="0 0 113.38583 113.38583"
   version="1.1"
   id="svg4311"
   sodipodi:docname="reset_contrast.svg"
   inkscape:version="1.1.2 (0a00cf5339, 2022-02-04)"
   xmlns:inkscape="http://www.inkscape.org/namespaces/inkscape"
   xmlns:sodipodi="http://sodipodi.sourceforge.net/DTD/sodipodi-0.dtd"
   xmlns="http://www.w3.org/2000/svg"
   xmlns:svg="http://www.w3.org/2000/svg">
  <defs
     id="defs4315" />
  <sodipodi:namedview
     id="namedview4313"
     pagecolor="#ffffff"
     bordercolor="#666666"
     borderopacity="1.0"
     inkscape:pageshadow="2"
     inkscape:pageopacity="0.0"
     inkscape:pagecheckerboard="0"
     showgrid="false"
     fit-margin-top="0"
     fit-margin-left="0"
     fit-margin-right="0"
     fit-margin-bottom="0"
     inkscape:zoom="3.66"
     inkscape:cx="6.010929"
     inkscape:cy="5.8743169"
     inkscape:window-width="2100"
     inkscape:window-height="1123"
     inkscape:window-x="3910"
     inkscape:window-y="44"
     inkscape:window-maximized="0"
     inkscape:current-layer="svg4311" />
  <path
     d="m 94.488189,56.692913 a 37.795276,37.795276 0 1 1 -75.590551,0 37.795276,37.795276 0 0 1 75.590551,0 M 61.417323,4.7244095 a 4.7244095,4.7244095 0 1 1 -9.448819,0 4.7244095,4.7244095 0 0 1 9.448819,0 m 0,103.9370105 a 4.7244095,4.7244095 0 1 1 -9.448819,0 4.7244095,4.7244095 0 0 1 9.448819,0 M 108.66142,61.417323 a 4.7244095,4.7244095 0 1 1 0,-9.448819 4.7244095,4.7244095 0 0 1 0,9.448819 m -103.9370105,0 a 4.7244095,4.7244095 0 1 1 0,-9.448819 4.7244095,4.7244095 0 0 1 0,9.448819 M 96.784252,23.28189 a 4.7244094,4.7244094 0 1 1 -6.680315,-6.680315 4.7244094,4.7244094 0 0 1 6.680315,6.680315 M 23.28189,96.784252 a 4.7244094,4.7244094 0 1 1 -6.680315,-6.680315 4.7244094,4.7244094 0 0 1 6.680315,6.680315 m 66.822047,0 a 4.7244094,4.7244094 0 1 1 6.680315,-6.680315 4.7244094,4.7244094 0 0 1 -6.680315,6.680315 M 16.601575,23.28189 a 4.7244094,4.7244094 0 1 1 6.680315,-6.680315 4.7244094,4.7244094 0 0 1 -6.680315,6.680315"
     id="path4309"
     style="stroke-width:0.999997" />
</svg>
