<?xml version="1.0" encoding="UTF-8" standalone="no"?>
<svg
   width="113.38583"
   height="113.38583"
   fill="currentColor"
   class="bi bi-brightness-low-fill"
   viewBox="0 0 113.38583 113.38583"
   version="1.1"
   id="svg4311"
   sodipodi:docname="reset_contrast.svg"
   inkscape:version="1.1.2 (0a00cf5339, 2022-02-04)"
   xmlns:inkscape="http://www.inkscape.org/namespaces/inkscape"
   xmlns:sodipodi="http://sodipodi.sourceforge.net/DTD/sodipodi-0.dtd"
   xmlns="http://www.w3.org/2000/svg"
   xmlns:svg="http://www.w3.org/2000/svg">
  <defs
     id="defs4315" />
  <sodipodi:namedview
     id="namedview4313"
     pagecolor="#ffffff"
     bordercolor="#666666"
     borderopacity="1.0"
     inkscape:pageshadow="2"
     inkscape:pageopacity="0.0"
     inkscape:pagecheckerboard="0"
     showgrid="false"
     fit-margin-top="0"
     fit-margin-left="0"
     fit-margin-right="0"
     fit-margin-bottom="0"
     inkscape:zoom="3.66"
     inkscape:cx="32.513661"
     inkscape:cy="5.8743169"
     inkscape:window-width="2100"
     inkscape:window-height="1123"
     inkscape:window-x="4954"
     inkscape:window-y="445"
     inkscape:window-maximized="0"
     inkscape:current-layer="svg4311" />
  <path
     d="m 84.876071,56.692915 a 28.18232,28.18232 0 1 1 -56.36464,0 28.18232,28.18232 0 0 1 56.36464,0 M 60.216541,17.942231 a 3.52279,3.52279 0 1 1 -7.04558,0 3.52279,3.52279 0 0 1 7.04558,0 m 0,77.501371 a 3.52279,3.52279 0 1 1 -7.04558,0 3.52279,3.52279 0 0 1 7.04558,0 m 35.2279,-35.227897 a 3.5227896,3.5227896 0 1 1 0,-7.045579 3.5227896,3.5227896 0 0 1 0,7.045579 m -77.50137,0 a 3.5227896,3.5227896 0 1 1 0,-7.045579 3.5227896,3.5227896 0 0 1 0,7.045579 m 68.64507,-28.435957 a 3.5227895,3.5227895 0 1 1 -4.98122,-4.981224 3.5227895,3.5227895 0 0 1 4.98122,4.981224 m -54.80756,54.80756 a 3.5227895,3.5227895 0 1 1 -4.98122,-4.981225 3.5227895,3.5227895 0 0 1 4.98122,4.981225 m 49.82634,0 a 3.5227895,3.5227895 0 1 1 4.98122,-4.981225 3.5227895,3.5227895 0 0 1 -4.98122,4.981225 m -54.80756,-54.80756 a 3.5227895,3.5227895 0 1 1 4.98122,-4.981224 3.5227895,3.5227895 0 0 1 -4.98122,4.981224"
     id="path4309"
     style="fill:#000000;stroke-width:0.999993" />
</svg>
