<?xml version="1.0" encoding="UTF-8" standalone="no"?>
<svg
   width="113.38229"
   height="113.38583"
   fill="currentColor"
   class="bi bi-zoom-in"
   viewBox="0 0 113.38229 113.38583"
   version="1.1"
   id="svg6767"
   sodipodi:docname="zoom_in.svg"
   inkscape:version="1.1.2 (0a00cf5339, 2022-02-04)"
   xmlns:inkscape="http://www.inkscape.org/namespaces/inkscape"
   xmlns:sodipodi="http://sodipodi.sourceforge.net/DTD/sodipodi-0.dtd"
   xmlns="http://www.w3.org/2000/svg"
   xmlns:svg="http://www.w3.org/2000/svg">
  <defs
     id="defs6771" />
  <sodipodi:namedview
     id="namedview6769"
     pagecolor="#ffffff"
     bordercolor="#666666"
     borderopacity="1.0"
     inkscape:pageshadow="2"
     inkscape:pageopacity="0.0"
     inkscape:pagecheckerboard="0"
     showgrid="false"
     fit-margin-top="0"
     fit-margin-left="0"
     fit-margin-right="0"
     fit-margin-bottom="0"
     inkscape:zoom="3.19"
     inkscape:cx="8.1504702"
     inkscape:cy="7.9937304"
     inkscape:window-width="2100"
     inkscape:window-height="1123"
     inkscape:window-x="3910"
     inkscape:window-y="44"
     inkscape:window-maximized="0"
     inkscape:current-layer="svg6767" />
  <g
     id="g6840"
     transform="scale(7.0865244)"
     style="stroke-width:0.141113">
    <path
       fill-rule="evenodd"
       d="m 6.5,12 a 5.5,5.5 0 1 0 0,-11 5.5,5.5 0 0 0 0,11 M 13,6.5 a 6.5,6.5 0 1 1 -13,0 6.5,6.5 0 0 1 13,0"
       id="path6761"
       style="stroke-width:0.0199129" />
    <path
       d="m 10.344,11.742 c 0.03,0.04 0.062,0.078 0.098,0.115 l 3.85,3.85 a 1.0002026,1.0002026 0 0 0 1.415,-1.414 l -3.85,-3.85 a 1.007,1.007 0 0 0 -0.115,-0.1 6.538,6.538 0 0 1 -1.398,1.4 z"
       id="path6763"
       style="stroke-width:0.141113" />
    <path
       fill-rule="evenodd"
       d="M 6.5,3 A 0.5,0.5 0 0 1 7,3.5 V 6 h 2.5 a 0.5,0.5 0 0 1 0,1 H 7 v 2.5 a 0.5,0.5 0 0 1 -1,0 V 7 H 3.5 a 0.5,0.5 0 0 1 0,-1 H 6 V 3.5 A 0.5,0.5 0 0 1 6.5,3"
       id="path6765"
       style="stroke-width:0.0199129" />
  </g>
</svg>
